<?xml version="1.0" encoding="UTF-8"?>
<svg width="193px" height="193px" viewBox="0 0 193 193" version="1.1" xmlns="http://www.w3.org/2000/svg" xmlns:xlink="http://www.w3.org/1999/xlink">
    <!-- Generator: Sketch 47.1 (45422) - http://www.bohemiancoding.com/sketch -->
    <title>Group 12</title>
    <desc>Created with Sketch.</desc>
    <defs></defs>
    <g id="Welcome" stroke="none" stroke-width="1" fill="none" fill-rule="evenodd">
        <g id="Desktop" transform="translate(-717.000000, -1658.000000)">
            <g id="Group-4" transform="translate(0.000000, 1500.000000)">
                <g id="Cosmetic-Treatments" transform="translate(669.000000, 158.000000)">
                    <g id="Group-3" transform="translate(48.000000, 0.000000)">
                        <g id="Group-12">
                            <g id="services-circle" fill="#ACD3FF">
                                <circle id="Oval" cx="96.5" cy="96.5" r="96.5"></circle>
                            </g>
                            <g id="Asset-11" transform="translate(27.000000, 67.000000)" fill-rule="nonzero">
                                <path d="M69.3754772,72.9872895 C126.551977,74.0074726 141.174226,13.2916402 138.749927,7.61020233 C135.710793,0.460383777 120.632992,6.13755314 69.553875,6.13755314 L69.553875,6.13755314 C18.4779434,6.13755314 3.30138645,0.460383777 0.249509549,7.61020233 C-2.17160365,13.2916402 12.4474601,74.0074726 69.6271455,72.9872895" id="Shape" fill="#EBAFC9"></path>
                                <path d="M15,17.0100811 C15,41.9500305 42.9567723,57 69.6570605,57 C96.3573487,57 124,38.9400366 124,17.0100811 C124,13.570088 84.1914409,20.020075 70.2853026,20.020075 C55.986513,20.020075 15,14.7052857 15,17.0100811 Z" id="Shape" fill="#EFEFEF"></path>
                                <path d="M100.07577,8.52884656 L101.68316,6.28600042 C101.721754,6.23155343 101.74406,6.16717756 101.747456,6.10044121 L101.89614,3.3331886 C101.902631,3.20459778 101.978748,3.08990012 102.094459,3.03434771 C102.21017,2.9787953 102.346894,2.9913089 102.450689,3.06695147 L104.684961,4.68050984 C104.7392,4.71925115 104.80333,4.74164276 104.869811,4.74505217 L107.626485,4.90237412 C107.764746,4.89286173 107.895552,4.96622898 107.959954,5.08941192 C108.024356,5.21259485 108.010195,5.36233638 107.923852,5.47115344 L106.316462,7.71399958 C106.277869,7.76844657 106.255563,7.83282244 106.252167,7.89955879 L106.095446,10.6668114 C106.088954,10.7954022 106.012838,10.9100999 105.897127,10.9656523 C105.781416,11.0212047 105.644692,11.0086911 105.540896,10.9330485 L103.306624,9.31949016 C103.252385,9.28074885 103.188256,9.25835724 103.121774,9.25494783 L100.365101,9.09762588 C100.228287,9.1037171 100.100529,9.02905973 100.038248,8.90662517 C99.9759672,8.7841906 99.9906338,8.63652646 100.07577,8.52884656 L100.07577,8.52884656 Z" id="Shape" fill="#6BA3F7"></path>
                                <path d="M90.2904741,13.1862254 L93.1808686,8.15300493 C93.2659219,8.03606295 93.4111173,7.97909552 93.5530167,8.00699254 C93.6949162,8.03488957 93.8077296,8.14258078 93.8421671,8.28301431 L94.6334961,14.0331437 C94.6505238,14.1413126 94.7144182,14.2364588 94.8081087,14.2931625 L99.8421504,17.1830854 C99.9614985,17.2669841 100.020685,17.4129596 99.9934603,17.5562682 C99.9662353,17.6995768 99.8576383,17.8136879 99.715835,17.8479906 L93.9647673,18.6391905 C93.8565808,18.6562154 93.761419,18.7200993 93.7047061,18.8137746 L90.8143117,23.8469951 C90.7292584,23.9639371 90.584063,24.0209045 90.4421636,23.9930075 C90.3002641,23.9651104 90.1874507,23.8574192 90.1530132,23.7169857 L89.3616842,17.9668563 C89.3446565,17.8586874 89.2807621,17.7635412 89.1870716,17.7068375 L84.1530299,14.8169146 C84.0360688,14.7318752 83.9790921,14.5867035 84.0069937,14.4448272 C84.0348953,14.3029509 84.142604,14.1901559 84.2830605,14.155724 L90.0192675,13.364524 C90.1322286,13.3498069 90.2321928,13.2840877 90.2904741,13.1862254 Z" id="Shape" fill="#EDCA37"></path>
                                <path d="M112.327278,1.36837059 L113.813956,0.0675271006 C113.890512,0.00160386708 113.996745,-0.0177372861 114.091623,0.0169740986 C114.186501,0.0516854832 114.255171,0.135015579 114.27111,0.234778407 L114.564729,2.18604364 C114.573106,2.23853774 114.596319,2.28754198 114.631629,2.32727808 L115.932473,3.81395636 C115.998396,3.89051223 116.017737,3.99674511 115.983026,4.09162289 C115.948315,4.18650068 115.864984,4.25517091 115.765222,4.27110993 L113.813956,4.56472889 C113.761462,4.5731061 113.712458,4.59631864 113.672722,4.63162941 L112.186044,5.9324729 C112.109488,5.99839613 112.003255,6.01773729 111.908377,5.9830259 C111.813499,5.94831452 111.744829,5.86498442 111.72889,5.76522159 L111.435271,3.81395636 C111.426894,3.76146226 111.403681,3.71245802 111.368371,3.67272192 L110.067527,2.18604364 C110.001604,2.10948777 109.982263,2.00325489 110.016974,1.90837711 C110.051685,1.81349932 110.135016,1.74482909 110.234778,1.72889007 L112.186044,1.43527111 C112.238538,1.4268939 112.287542,1.40368136 112.327278,1.36837059 L112.327278,1.36837059 Z" id="Shape" fill="#6BA3F7"></path>
                                <path d="M111.94765,19.7201158 L114.522769,20.5644172 C114.821269,20.6654112 115.015955,20.9528661 114.998971,21.2675303 C114.981986,21.5821946 114.757489,21.8470232 114.449852,21.9152995 L111.797978,22.4794463 C111.554429,22.5325141 111.357257,22.7106992 111.279884,22.9476498 L110.435583,25.522769 C110.334589,25.8212691 110.047134,26.0159555 109.73247,25.9989708 C109.417805,25.9819861 109.152977,25.7574889 109.084701,25.4498521 L108.520554,22.7979782 C108.467486,22.5544294 108.289301,22.3572574 108.05235,22.2798842 L105.477231,21.4355828 C105.178731,21.3345888 104.984045,21.0471339 105.001029,20.7324697 C105.018014,20.4178054 105.242511,20.1529768 105.550148,20.0847005 L108.202022,19.5205537 C108.445571,19.4674859 108.642743,19.2893008 108.720116,19.0523502 L109.564417,16.477231 C109.665411,16.1787309 109.952866,15.9840445 110.26753,16.0010292 C110.582195,16.0180139 110.847023,16.2425111 110.915299,16.5501479 L111.479446,19.2020218 C111.532514,19.4455706 111.710699,19.6427426 111.94765,19.7201158 L111.94765,19.7201158 Z" id="Shape" fill="#F4DE7C"></path>
                                <path d="M118.907719,9.47536905 L118.869978,3.79472513 C118.869425,3.4618859 119.076475,3.16408654 119.388464,3.04898652 C119.700454,2.9338865 120.051046,3.02595925 120.266404,3.27955186 L123.917012,7.62761425 C124.068745,7.8075649 124.292495,7.91074498 124.527734,7.90924231 L130.206077,7.87146294 C130.53858,7.87090936 130.836079,8.07816802 130.951063,8.39047275 C131.066047,8.70277748 130.974067,9.05372365 130.72073,9.26929974 L126.373625,12.92703 C126.193856,13.0789159 126.09078,13.3028921 126.092281,13.5383689 L126.126591,19.2052749 C126.127144,19.5381141 125.920094,19.8359135 125.608105,19.9510135 C125.296115,20.0661135 124.945523,19.9740407 124.730165,19.7204481 L121.079557,15.3861237 C120.927824,15.2061731 120.704074,15.102993 120.468835,15.1044956 L114.793923,15.142275 C114.46142,15.1428286 114.163921,14.9355699 114.048937,14.6232652 C113.933953,14.3109605 114.025933,13.9600143 114.27927,13.7444382 L118.612651,10.086708 C118.797547,9.93747859 118.90584,9.71311135 118.907719,9.47536905 Z" id="Shape" fill="#F9DE6B"></path>
                            </g>
                        </g>
                    </g>
                </g>
            </g>
        </g>
    </g>
</svg>