<?xml version="1.0" encoding="UTF-8"?>
<svg width="263px" height="46px" viewBox="0 0 263 46" version="1.1" xmlns="http://www.w3.org/2000/svg" xmlns:xlink="http://www.w3.org/1999/xlink">
    <!-- Generator: Sketch 48.1 (47250) - http://www.bohemiancoding.com/sketch -->
    <title>new logo</title>
    <desc>Created with Sketch.</desc>
    <defs></defs>
    <g id="Symbols" stroke="none" stroke-width="1" fill="none" fill-rule="evenodd">
        <g id="new-logo">
            <g id="Group-2">
                <g id="Group">
                    <path d="M19.4943106,37.1624273 C19.7089307,37.1624273 20.8870821,37.1624273 21.4225027,37.9647853 C21.8506133,38.8822643 22.0652334,39.3404224 22.2798535,40.0288223 C22.5057694,40.6102412 23.1281677,42.7347458 23.8262478,44.2557375 C24.6226013,45.99418 26.5756441,46.4837347 28.1186496,45.4953226 C28.7299319,45.0993619 29.2830103,44.6153644 29.7610581,44.0580551 C31.1617366,42.4300823 32.1196199,40.4858176 33.0266722,38.5229474 C34.2692096,35.8228382 34.9108107,34.6390694 35.7523474,31.7656973 C36.4741487,29.3004813 36.9508312,27.5073855 37.5257871,24.9979816 C38.178684,22.1513548 38.804471,19.2930996 38.9513163,16.3406546 C39.0541081,14.2731291 39.0258686,12.2439772 38.5514452,10.2113368 C37.6816691,6.49025603 35.0689518,4.73437103 31.9230731,4.13667243 C30.228704,3.81572921 28.5490194,4.07387919 26.9529236,4.79600143 C25.6414819,5.38788584 24.3311698,5.97744458 23.0321534,6.58909724 C21.902574,7.1240026 20.7628283,7.61006878 19.4943106,7.57518365 L19.506736,7.57518365 C18.2393479,7.61006878 17.1007318,7.12283976 15.9688932,6.58909724 C14.6698769,5.97744458 13.3595647,5.38788584 12.0503822,4.79600143 C10.4520273,4.07271635 8.77460183,3.81456637 7.08023268,4.13667243 C3.93209481,4.73437103 1.31937758,6.48909319 0.451860579,10.2113368 C-0.0259515203,12.2439772 -0.0541910061,14.2731291 0.0486007222,16.3406546 C0.196575628,19.2930996 0.822362633,22.1548433 1.47412996,24.9979816 C2.0490859,27.5062226 2.52463884,29.3004813 3.24756967,31.7656973 C4.08910635,34.6402322 4.72505957,35.8228382 5.97324484,38.5229474 C6.87690839,40.4858176 7.83818048,42.4324079 9.23885898,44.0580551 C9.71690675,44.6153644 10.2699851,45.0993619 10.8812675,45.4953226 C12.4265321,46.4837347 14.3829637,45.99418 15.1736693,44.2557375 C15.872879,42.7347458 16.4918885,40.6079155 16.7178044,40.0288223 C16.9324245,39.3404224 17.145915,38.8822643 17.5751552,37.9647853 C18.1105758,37.1624273 19.2887272,37.1624273 19.5033473,37.1624273" id="Shape" fill="#2A6BB4" fill-rule="nonzero"></path>
                    <text id="a" font-family="Raleway-ExtraBold, Raleway" font-size="36" font-weight="600" fill="#FFFFFF">
                        <tspan x="9" y="34">a</tspan>
                    </text>
                </g>
                <text id="dental-place" font-family="Raleway-ExtraBold, Raleway" font-size="36" font-weight="600" fill="#2A6BB4">
                    <tspan x="42" y="34">dental place</tspan>
                </text>
            </g>
        </g>
    </g>
</svg>
