<?xml version="1.0" encoding="UTF-8"?>
<svg width="225px" height="65px" viewBox="0 0 225 65" version="1.1" xmlns="http://www.w3.org/2000/svg" xmlns:xlink="http://www.w3.org/1999/xlink">
    <!-- Generator: Sketch 47.1 (45422) - http://www.bohemiancoding.com/sketch -->
    <title>Rasterized Logo</title>
    <desc>Created with Sketch.</desc>
    <defs></defs>
    <g id="Symbols" stroke="none" stroke-width="1" fill="none" fill-rule="evenodd">
        <g id="Rasterized-Logo" fill="#000">
            <path d="M48.041,64 L46.669,58.708 L41.965,45.184 L27.069,44.988 L13.643,45.184 L8.547,58.512 L7.077,64 L1.785,64 L25.697,1.378 L31.479,1.378 L53.333,64 L48.041,64 Z M28.735,7.258 L28.147,7.258 L15.407,40.676 L27.657,40.774 L40.397,40.676 L28.735,7.258 Z" id="A"></path>
            <path d="M80,4.54 C82.4200121,6.9800122 83.63,10.4799772 83.63,15.04 C83.63,20.2800262 82.3100132,24.299986 79.67,27.1 C77.0299868,29.900014 73.2500246,31.3 68.33,31.3 C64.529981,31.3 61.030016,31.200001 57.83,31 L58.01,22 L57.83,1.12 L69.53,0.88 C74.0900228,0.88 77.5799879,2.0999878 80,4.54 Z M76.46,24.73 C78.2000087,22.7899903 79.07,19.8600196 79.07,15.94 C79.07,8.4199624 75.770033,4.66 69.17,4.66 C67.2099902,4.66 64.9100132,4.7399992 62.27,4.9 L62.15,21.64 L62.21,27.28 C64.8500132,27.5200012 67.1299904,27.64 69.05,27.64 C72.250016,27.64 74.7199913,26.6700097 76.46,24.73 Z M110.39,27.52 L109.97,31 L91.79,31 L91.97,22 L91.79,1.12 L110.09,1.12 L110.39,1.48 L110.03,4.96 L102.47,4.72 L96.23,4.78 L96.17,13.84 L102.11,13.9 L107.33,13.72 L107.63,14.14 L107.27,17.68 L101.75,17.5 L96.17,17.56 L96.11,21.64 L96.17,27.34 L102.05,27.4 L110.03,27.16 L110.39,27.52 Z M142.73,31 L137.93,31 L122.21,8.2 L121.91,8.2 L121.85,21.04 L121.97,31 L117.89,31 L118.07,22.18 L117.95,1.12 L122.69,1.12 L138.41,23.92 L138.83,23.92 L138.71,1.3 L142.85,1 L142.67,22.06 L142.73,31 Z M172.25,5.26 L166.67,4.84 L163.67,4.84 L163.49,21.64 L163.67,31 L159.17,31 L159.35,22 L159.23,4.84 L156.23,4.84 L150.53,5.26 L150.17,4.84 L150.53,1.12 L172.31,1.12 L172.55,1.48 L172.25,5.26 Z M195.41,31 L194.69,27.76 L193.13,23.32 L185.99,23.26 L179.63,23.32 L178.01,27.52 L177.17,31 L172.73,31 L184.25,1.12 L189.41,1.12 L199.91,31 L195.41,31 Z M186.89,5.5 L186.53,5.5 L181.07,19.66 L186.35,19.72 L191.87,19.66 L186.89,5.5 Z M223.13,31 L207.23,31 L207.41,22 L207.23,1.12 L211.73,1.12 L211.55,21.64 L211.67,27.22 L223.19,27.22 L223.43,27.64 L223.13,31 Z" id="dental"></path>
            <path d="M75.98,36.34 C77.6800085,37.8600076 78.53,40.0599856 78.53,42.94 C78.53,46.3000168 77.4600107,48.9299905 75.32,50.83 C73.1799893,52.7300095 70.2300188,53.68 66.47,53.68 L62.81,53.68 L62.81,54.64 L62.93,64 L58.49,64 L58.67,55 L58.49,34.12 L68.69,34.06 C71.8500158,34.06 74.2799915,34.8199924 75.98,36.34 Z M73.85,43.3 C73.85,39.699982 71.7300212,37.800001 67.49,37.6 L62.93,37.66 L62.87,50.08 L67.91,50.2 C71.8700198,49.5199966 73.85,47.2200196 73.85,43.3 Z M102.23,64 L86.33,64 L86.51,55 L86.33,34.12 L90.83,34.12 L90.65,54.64 L90.77,60.22 L102.29,60.22 L102.53,60.64 L102.23,64 Z M128.39,64 L127.67,60.76 L126.11,56.32 L118.97,56.26 L112.61,56.32 L110.99,60.52 L110.15,64 L105.71,64 L117.23,34.12 L122.39,34.12 L132.89,64 L128.39,64 Z M119.87,38.5 L119.51,38.5 L114.05,52.66 L119.33,52.72 L124.85,52.66 L119.87,38.5 Z M159.83,35.92 L158.99,40.06 L158.45,40.24 C156.329989,38.439991 153.750015,37.54 150.71,37.54 C144.62997,37.54 141.59,41.3199622 141.59,48.88 C141.59,52.680019 142.369992,55.57999 143.93,57.58 C145.490008,59.58001 147.749985,60.58 150.71,60.58 C153.750015,60.58 156.509988,59.6600092 158.99,57.82 L159.53,58 L159.11,62.14 C156.389986,63.6200074 153.530015,64.36 150.53,64.36 C146.129978,64.36 142.750012,63.0500131 140.39,60.43 C138.029988,57.8099869 136.85,54.0800242 136.85,49.24 C136.85,44.3199754 138.099987,40.5200134 140.6,37.84 C143.100012,35.1599866 146.629977,33.82 151.19,33.82 C154.510017,33.82 157.389988,34.519993 159.83,35.92 Z M185.81,60.52 L185.39,64 L167.21,64 L167.39,55 L167.21,34.12 L185.51,34.12 L185.81,34.48 L185.45,37.96 L177.89,37.72 L171.65,37.78 L171.59,46.84 L177.53,46.9 L182.75,46.72 L183.05,47.14 L182.69,50.68 L177.17,50.5 L171.59,50.56 L171.53,54.64 L171.59,60.34 L177.47,60.4 L185.45,60.16 L185.81,60.52 Z" id="place"></path>
            <path d="M197.1955,44 L191.5525,44 L191.6665,41.15 L191.5525,34.405 L193.9845,34.405 L193.8515,40.922 L193.8895,42.043 L197.2145,42.043 L197.3475,42.214 L197.1955,44 Z M204.3585,36.419 L202.4205,36.286 L201.8695,36.286 L201.8125,40.922 L201.8885,44 L199.5135,44 L199.6085,41.15 L199.5705,36.286 L199.0195,36.286 L197.0435,36.419 L196.8915,36.229 L197.0245,34.405 L204.3585,34.405 L204.4915,34.595 L204.3585,36.419 Z M213.944,35.4975 C214.735671,36.2765039 215.1315,37.3879928 215.1315,38.832 C215.1315,40.5293418 214.685004,41.8339954 213.792,42.746 C212.898996,43.6580046 211.616508,44.114 209.9445,44.114 C208.969162,44.114 207.759507,44.0760004 206.3155,44 L206.4105,41.15 L206.3155,34.405 L210.5335,34.329 C212.015507,34.329 213.152329,34.7184961 213.944,35.4975 Z M212.6615,39.402 C212.6615,38.274661 212.477835,37.4671691 212.1105,36.9795 C211.743165,36.4918309 211.154171,36.248 210.3435,36.248 C209.748164,36.248 209.203502,36.2733331 208.7095,36.324 L208.6145,40.922 L208.6525,42.157 C209.323837,42.2456671 209.900164,42.29 210.3815,42.29 C211.901508,42.29 212.6615,41.327343 212.6615,39.402 Z" id="ltd"></path>
        </g>
    </g>
</svg>
