<?xml version="1.0" encoding="UTF-8"?>
<svg width="193px" height="193px" viewBox="0 0 193 193" version="1.1" xmlns="http://www.w3.org/2000/svg" xmlns:xlink="http://www.w3.org/1999/xlink">
    <!-- Generator: Sketch 47.1 (45422) - http://www.bohemiancoding.com/sketch -->
    <title>Group 11</title>
    <desc>Created with Sketch.</desc>
    <defs></defs>
    <g id="Welcome" stroke="none" stroke-width="1" fill="none" fill-rule="evenodd">
        <g id="Desktop" transform="translate(-115.000000, -1658.000000)">
            <g id="Group-4" transform="translate(0.000000, 1500.000000)">
                <g id="Restorative-Dentistry" transform="translate(66.000000, 158.000000)">
                    <g id="Group-2" transform="translate(49.000000, 0.000000)">
                        <g id="Group-11">
                            <g id="services-circle" fill="#ACD3FF">
                                <circle id="Oval" cx="96.5" cy="96.5" r="96.5"></circle>
                            </g>
                            <g id="Asset-3" transform="translate(35.000000, 33.000000)" fill-rule="nonzero">
                                <path d="M61.4820566,101.066445 C62.1589354,101.066445 65.8746435,101.066445 67.5632778,103.511727 C68.9134728,106.307853 69.5903516,107.704144 70.2672303,109.802125 C70.9797343,111.574068 72.9426826,118.048749 75.1443199,122.684152 C77.6558963,127.982263 83.8154929,129.474239 88.6818949,126.461935 C90.6097854,125.255198 92.3541095,123.780158 93.8617986,122.081692 C98.2793231,117.120251 101.30034,111.194873 104.161043,105.212792 C108.079815,96.9838878 110.103326,93.3762114 112.757403,84.6192679 C115.033853,77.1062286 116.537237,71.6415557 118.350559,63.9938487 C120.409696,55.3184146 122.383332,46.6075417 122.846459,37.609614 C123.170649,31.3085838 123.081586,25.1245019 121.585327,18.9297884 C118.842187,7.58935171 110.602079,2.23808314 100.680461,0.416525499 C95.3366818,-0.561587165 90.0392149,0.22515563 85.0053745,2.42590913 C80.8692891,4.22974734 76.7367662,6.02649778 72.6398685,7.89058206 C69.0773487,9.52076983 65.4827663,11.0021144 61.4820566,10.8957978 L61.5212443,10.8957978 C57.5240972,11.0021144 53.9330773,9.51722594 50.3634325,7.89058206 C46.2665348,6.02649778 42.1340119,4.22974734 38.0050515,2.42590913 C32.9640861,0.221611744 27.6737442,-0.565131052 22.3299646,0.416525499 C12.4012221,2.23808314 4.16111391,7.58580782 1.42509875,18.9297884 C-0.0818471026,25.1245019 -0.170910096,31.3085838 0.153279201,37.609614 C0.619969287,46.6075417 2.59360523,55.3290463 4.64917912,63.9938487 C6.46250167,71.6380118 7.96232248,77.1062286 10.2423351,84.6192679 C12.8964123,93.3797553 14.9021109,96.9838878 18.8386953,105.212792 C21.6887111,111.194873 24.7204154,117.127338 29.1379399,122.081692 C30.645629,123.780158 32.3899531,125.255198 34.3178436,126.461935 C39.1913706,129.474239 45.3616548,127.982263 47.8554186,122.684152 C50.0606183,118.048749 52.0128791,111.566981 52.7253831,109.802125 C53.4022618,107.704144 54.0755781,106.307853 55.4293356,103.511727 C57.1179699,101.066445 60.833678,101.066445 61.5105568,101.066445" id="Shape" fill="#EFEFEF"></path>
                                <rect id="Rectangle-path" fill="#CCAC89" transform="translate(61.500000, 59.000000) rotate(-65.410000) translate(-61.500000, -59.000000) " x="45" y="14" width="33" height="90" rx="12"></rect>
                                <path d="M68,74.6868765 L67.5538718,75.686215 C67.4140099,75.9677047 67.0772915,76.0806396 66.8010305,75.9387169 L45.6552508,66.1124807 L45,64 L68,74.6868765 Z" id="Shape" fill="#A4896F"></path>
                                <path d="M77.0875912,52 L66,75.4954525 L66.9963504,75.9378947 C67.3632214,76.0973893 67.7940054,75.939136 67.959854,75.5839409 L78,54.3113182 L77.0875912,52 Z" id="Shape" fill="#A4896F"></path>
                                <rect id="Rectangle-path" fill="#A4896F" transform="translate(65.000000, 69.000000) rotate(-65.410000) translate(-65.000000, -69.000000) " x="64" y="68" width="2" height="2" rx="1"></rect>
                                <rect id="Rectangle-path" fill="#A4896F" transform="translate(67.000000, 65.000000) rotate(-65.410000) translate(-67.000000, -65.000000) " x="66" y="64" width="2" height="2" rx="1"></rect>
                                <rect id="Rectangle-path" fill="#A4896F" transform="translate(63.000000, 62.000000) rotate(-65.410000) translate(-63.000000, -62.000000) " x="62" y="61" width="2" height="2" rx="1"></rect>
                                <rect id="Rectangle-path" fill="#A4896F" transform="translate(61.000000, 67.000000) rotate(-65.410000) translate(-61.000000, -67.000000) " x="60" y="66" width="2" height="2" rx="1"></rect>
                                <rect id="Rectangle-path" fill="#A4896F" transform="translate(69.000000, 60.000000) rotate(-65.410000) translate(-69.000000, -60.000000) " x="68" y="59" width="2" height="2" rx="1"></rect>
                                <rect id="Rectangle-path" fill="#A4896F" transform="translate(56.000000, 65.000000) rotate(-65.410000) translate(-56.000000, -65.000000) " x="55" y="64" width="2" height="2" rx="1"></rect>
                                <rect id="Rectangle-path" fill="#A4896F" transform="translate(71.000000, 56.000000) rotate(-65.410000) translate(-71.000000, -56.000000) " x="70" y="55" width="2" height="2" rx="1"></rect>
                                <rect id="Rectangle-path" fill="#A4896F" transform="translate(65.000000, 58.000000) rotate(-65.410000) translate(-65.000000, -58.000000) " x="64" y="57" width="2" height="2" rx="1"></rect>
                                <rect id="Rectangle-path" fill="#A4896F" transform="translate(58.000000, 60.000000) rotate(-65.410000) translate(-58.000000, -60.000000) " x="57" y="59" width="2" height="2" rx="1"></rect>
                                <rect id="Rectangle-path" fill="#A4896F" transform="translate(52.000000, 63.000000) rotate(-65.410000) translate(-52.000000, -63.000000) " x="51" y="62" width="2" height="2" rx="1"></rect>
                                <rect id="Rectangle-path" fill="#A4896F" transform="translate(58.000000, 49.000000) rotate(114.590000) translate(-58.000000, -49.000000) " x="57" y="48" width="2" height="2" rx="1"></rect>
                                <rect id="Rectangle-path" fill="#A4896F" transform="translate(56.000000, 54.000000) rotate(114.590000) translate(-56.000000, -54.000000) " x="55" y="53" width="2" height="2" rx="1"></rect>
                                <rect id="Rectangle-path" fill="#A4896F" transform="translate(60.000000, 56.000000) rotate(114.590000) translate(-60.000000, -56.000000) " x="59" y="55" width="2" height="2" rx="1"></rect>
                                <rect id="Rectangle-path" fill="#A4896F" transform="translate(62.000000, 51.000000) rotate(114.590000) translate(-62.000000, -51.000000) " x="61" y="50" width="2" height="2" rx="1"></rect>
                                <rect id="Rectangle-path" fill="#A4896F" transform="translate(54.000000, 58.000000) rotate(114.590000) translate(-54.000000, -58.000000) " x="53" y="57" width="2" height="2" rx="1"></rect>
                                <rect id="Rectangle-path" fill="#A4896F" transform="translate(67.000000, 53.000000) rotate(114.590000) translate(-67.000000, -53.000000) " x="66" y="52" width="2" height="2" rx="1"></rect>
                            </g>
                        </g>
                    </g>
                </g>
            </g>
        </g>
    </g>
</svg>